<?xml version="1.0" encoding="UTF-8" standalone="no"?>
<!-- Svg Vector Icons : http://www.onlinewebfonts.com/icon -->

<svg
   xmlns:dc="http://purl.org/dc/elements/1.1/"
   xmlns:cc="http://creativecommons.org/ns#"
   xmlns:rdf="http://www.w3.org/1999/02/22-rdf-syntax-ns#"
   xmlns:svg="http://www.w3.org/2000/svg"
   xmlns="http://www.w3.org/2000/svg"
   xmlns:sodipodi="http://sodipodi.sourceforge.net/DTD/sodipodi-0.dtd"
   xmlns:inkscape="http://www.inkscape.org/namespaces/inkscape"
   version="1.1"
   x="0px"
   y="0px"
   viewBox="0 0 1000 1000"
   enable-background="new 0 0 1000 1000"
   xml:space="preserve"
   id="svg38"
   sodipodi:docname="arrows.svg"
   inkscape:version="0.92.2 2405546, 2018-03-11"><defs
   id="defs42" /><sodipodi:namedview
   pagecolor="#ffffff"
   bordercolor="#666666"
   borderopacity="1"
   objecttolerance="10"
   gridtolerance="10"
   guidetolerance="10"
   inkscape:pageopacity="0"
   inkscape:pageshadow="2"
   inkscape:window-width="1245"
   inkscape:window-height="722"
   id="namedview40"
   showgrid="false"
   inkscape:zoom="0.236"
   inkscape:cx="500"
   inkscape:cy="500"
   inkscape:window-x="376"
   inkscape:window-y="229"
   inkscape:window-maximized="0"
   inkscape:current-layer="g36" />
<metadata
   id="metadata2"> Svg Vector Icons : http://www.onlinewebfonts.com/icon <rdf:RDF><cc:Work
     rdf:about=""><dc:format>image/svg+xml</dc:format><dc:type
       rdf:resource="http://purl.org/dc/dcmitype/StillImage" /><dc:title></dc:title></cc:Work></rdf:RDF></metadata>
<g
   id="g36"><path
     d="M973.3,409c-16.4,22.6-42.9,36.1-70.8,36.1c0,0,0,0,0,0c-1,0-2,0-3-0.1l-234.2-7.8c-27.5-0.9-52.1-16.9-64-41.8c-11.9-24.9-9-54,7.5-76c11.5-15.3,28.7-25.4,47.3-28.5c-55.4-27.5-116.8-42.2-180.4-42.2c-108.5,0-210.5,42.3-287.3,119l-16.8,16.8c-17.8,17.8-41.6,27.7-66.8,27.7c-25.2,0-49-9.8-66.8-27.7l-0.6-0.6c-17.7-17.7-27.4-41.2-27.4-66.3c0-25,9.7-48.6,27.4-66.3C154.6,134.5,310.2,70.1,475.7,70.1c104.6,0,205.2,25.7,294.6,74.2c-3.8-20.2,1-41.2,13.5-57.8c14-18.7,35.5-29.5,58.8-29.5c32,0,60.2,20.4,70.1,50.8l72.9,222.7C994.4,357.4,989.9,386,973.3,409z M962.5,615.9l-0.6-0.5c-17.8-17.8-41.6-27.7-66.8-27.7c-25.2,0-49,9.8-66.8,27.7l-16.8,16.8c-76.7,76.7-178.7,119-287.3,119c-63.6,0-125-14.6-180.4-42.1c18.6-3,35.8-13.2,47.3-28.5c16.5-22,19.4-51.2,7.5-76c-11.9-24.9-36.4-40.9-64-41.8l-234.2-7.8C71.4,554,43.7,567.6,26.7,591c-16.6,23-21.1,51.6-12.3,78.6l72.9,222.7c9.9,30.4,38.1,50.8,70.1,50.8c23.3,0,44.7-10.7,58.8-29.4c12.5-16.6,17.3-37.7,13.5-57.8c89.4,48.4,190,74.2,294.6,74.2c165.5,0,321.2-64.5,438.2-181.5c17.7-17.7,27.4-41.2,27.4-66.3C990,657.1,980.2,633.6,962.5,615.9z"
     id="path4"
     style="fill:#008000" /><g
     id="g6" /><g
     id="g8" /><g
     id="g10" /><g
     id="g12" /><g
     id="g14" /><g
     id="g16" /><g
     id="g18" /><g
     id="g20" /><g
     id="g22" /><g
     id="g24" /><g
     id="g26" /><g
     id="g28" /><g
     id="g30" /><g
     id="g32" /><g
     id="g34" /></g>
</svg>