<?xml version="1.0" encoding="UTF-8" standalone="no"?>
<!-- Svg Vector Icons : http://www.onlinewebfonts.com/icon -->

<svg
   xmlns:dc="http://purl.org/dc/elements/1.1/"
   xmlns:cc="http://creativecommons.org/ns#"
   xmlns:rdf="http://www.w3.org/1999/02/22-rdf-syntax-ns#"
   xmlns:svg="http://www.w3.org/2000/svg"
   xmlns="http://www.w3.org/2000/svg"
   xmlns:sodipodi="http://sodipodi.sourceforge.net/DTD/sodipodi-0.dtd"
   xmlns:inkscape="http://www.inkscape.org/namespaces/inkscape"
   version="1.1"
   x="0px"
   y="0px"
   viewBox="0 0 99.999978 90.416268"
   enable-background="new 0 0 1000 1000"
   xml:space="preserve"
   id="svg38"
   sodipodi:docname="arrows.svg"
   inkscape:version="0.92.2 2405546, 2018-03-11"
   width="99.999977"
   height="90.416267"><defs
   id="defs42" /><sodipodi:namedview
   pagecolor="#ffffff"
   bordercolor="#666666"
   borderopacity="1"
   objecttolerance="10"
   gridtolerance="10"
   guidetolerance="10"
   inkscape:pageopacity="0"
   inkscape:pageshadow="2"
   inkscape:window-width="1416"
   inkscape:window-height="861"
   id="namedview40"
   showgrid="false"
   inkscape:zoom="0.944"
   inkscape:cx="537.42989"
   inkscape:cy="122.82472"
   inkscape:window-x="207"
   inkscape:window-y="111"
   inkscape:window-maximized="0"
   inkscape:current-layer="g36"
   fit-margin-top="0"
   fit-margin-left="0"
   fit-margin-right="0"
   fit-margin-bottom="0" />
<metadata
   id="metadata2"> Svg Vector Icons : http://www.onlinewebfonts.com/icon <rdf:RDF><cc:Work
     rdf:about=""><dc:format>image/svg+xml</dc:format><dc:type
       rdf:resource="http://purl.org/dc/dcmitype/StillImage" /><dc:title></dc:title></cc:Work></rdf:RDF></metadata>
<g
   id="g36"
   transform="translate(-9.9886504,-852.68375)"><path
     d="m 108.28343,888.60126 c -1.67343,2.30607 -4.37745,3.68359 -7.22432,3.68359 0,0 0,0 0,0 -0.10204,0 -0.20408,0 -0.30612,-0.0102 l -23.897404,-0.7959 c -2.806057,-0.0918 -5.316203,-1.72445 -6.530461,-4.26521 -1.214257,-2.54076 -0.918346,-5.51007 0.765289,-7.75492 1.173442,-1.56119 2.928503,-2.59178 4.826418,-2.9081 -5.65293,-2.80605 -11.91809,-4.30602 -18.407736,-4.30602 -11.071172,0 -21.479093,4.31623 -29.315646,12.14258 l -1.714246,1.71424 c -1.816284,1.81629 -4.2448,2.82647 -6.816168,2.82647 -2.571369,0 -4.999884,-0.99998 -6.816169,-2.82647 l -0.06122,-0.0612 c -1.80608,-1.80608 -2.7958534,-4.20398 -2.7958534,-6.76515 0,-2.55096 0.9897734,-4.95907 2.7958534,-6.76515 11.958906,-11.91809 27.836089,-18.48937 44.723452,-18.48937 10.673222,0 20.93829,2.62239 30.060527,7.57126 -0.387746,-2.06118 0.102039,-4.20399 1.377519,-5.89783 1.428538,-1.90811 3.622365,-3.01013 5.999861,-3.01013 3.26523,0 6.142714,2.08158 7.152894,5.18355 l 7.4386,22.72397 c 0.89794,2.74483 0.43877,5.66313 -1.25507,8.01001 z m -1.10202,21.11176 -0.0612,-0.051 c -1.81628,-1.81628 -4.2448,-2.82646 -6.81617,-2.82646 -2.571367,0 -4.999882,0.99997 -6.816167,2.82646 l -1.714246,1.71425 c -7.826349,7.82635 -18.234271,12.14257 -29.315646,12.14257 -6.489645,0 -12.754806,-1.48976 -18.407736,-4.29582 1.897915,-0.30611 3.652976,-1.3469 4.826418,-2.90809 1.683635,-2.24485 1.979546,-5.22437 0.765289,-7.75492 -1.214258,-2.54076 -3.7142,-4.17338 -6.530461,-4.26521 l -23.897405,-0.7959 c -2.959115,-0.10204 -5.78558,1.28568 -7.520233,3.67338 -1.693839,2.34689 -2.1530116,5.26519 -1.255073,8.02022 l 7.438603,22.72397 c 1.01018,3.10197 3.887665,5.18355 7.152895,5.18355 2.377496,0 4.561119,-1.09181 5.999861,-2.99993 1.27548,-1.69384 1.765265,-3.84685 1.377519,-5.89782 9.122237,4.93866 19.387305,7.57125 30.060527,7.57125 16.887363,0 32.77475,-6.58148 44.713245,-18.51998 1.80608,-1.80608 2.79586,-4.20398 2.79586,-6.76515 0.0102,-2.57137 -0.98978,-4.96927 -2.79586,-6.77535 z"
     id="path4"
     style="fill:#008000;stroke-width:0.10203845"
     inkscape:connector-curvature="0" /><g
     id="g6" /><g
     id="g8" /><g
     id="g10" /><g
     id="g12" /><g
     id="g14" /><g
     id="g16" /><g
     id="g18" /><g
     id="g20" /><g
     id="g22" /><g
     id="g24" /><g
     id="g26" /><g
     id="g28" /><g
     id="g30" /><g
     id="g32" /><g
     id="g34" /></g>
</svg>